PathFileType	3	(X/Y/Z)	RCH0000005 BBF 05.c3d
DataRate	CameraRate	NumFrames	NumMarkers	Units	OrigDataRate	OrigDataStartFrame	OrigNumFrames
100.0	100.0	9	23	mm	100.0	148	453
Frame#	Time	T2			T10			MAN			LASI			RASI			LPSI			RPSI			LPAT			LKNE			LANK			LMED			LHEE			LTOE			RPAT			RKNE			RANK			RMED			RHEE			RTOE			LTHI			LTIB			RTHI			RTIB			
		X1	Y1	Z1	X2	Y2	Z2	X3	Y3	Z3	X4	Y4	Z4	X5	Y5	Z5	X6	Y6	Z6	X7	Y7	Z7	X8	Y8	Z8	X9	Y9	Z9	X10	Y10	Z10	X11	Y11	Z11	X12	Y12	Z12	X13	Y13	Z13	X14	Y14	Z14	X15	Y15	Z15	X16	Y16	Z16	X17	Y17	Z17	X18	Y18	Z18	X19	Y19	Z19	X20	Y20	Z20	X21	Y21	Z21	X22	Y22	Z22	X23	Y23	Z23	

148	1.470	-217.60856	-16.67458	1328.43680	-250.67566	-24.94161	1115.18077	-85.18312	-14.61689	1277.50909	-146.86879	68.77613	912.80161	-133.93170	-120.47605	914.55778	-280.21999	3.47083	966.16015	-280.14899	-84.13180	960.89155	-121.09454	-2.04146	515.92252	-177.70493	66.71985	456.86128	-262.56404	47.85821	74.69720	-257.75352	-36.40340	79.36493	-320.46238	17.25939	57.46565	-205.29320	15.59048	69.37103	-73.73750	-100.65112	510.70872	-152.14225	-158.83825	452.55149	-440.19304	-141.67206	209.13153	-417.81296	-64.55384	194.75724	-487.99285	-99.90913	232.14709	-399.83888	-134.83495	164.53517	-180.93388	148.92410	610.66013	-228.60067	129.00065	281.02665	-154.55695	-229.61291	626.07688	-285.92949	-217.76388	383.14170	
149	1.480	-206.55109	-15.40491	1329.42894	-239.69366	-23.98250	1116.18837	-74.27496	-13.64929	1278.41317	-136.30547	69.25287	913.39684	-122.92304	-119.87661	915.92262	-269.31669	3.67311	967.29875	-269.28311	-83.96975	961.99320	-117.31334	-1.54244	515.01820	-174.91402	67.12105	457.05984	-262.14434	48.20741	75.42933	-257.43798	-35.96417	80.11720	-320.14090	17.69035	58.60762	-204.97497	15.92001	69.69486	-54.57076	-100.56076	515.56221	-131.36323	-158.86036	455.45653	-411.53642	-140.65771	202.57346	-388.14827	-63.69680	188.97291	-460.06401	-98.57560	223.56005	-369.25433	-134.23362	159.73968	-175.42110	149.23428	611.01463	-227.06689	129.39352	281.64825	-137.87739	-229.89330	628.97757	-263.40247	-217.22412	381.68678	
150	1.490	-195.42356	-14.15459	1330.23967	-228.75963	-23.11009	1117.02385	-63.33104	-12.68220	1279.03491	-125.84417	69.67419	913.84657	-112.03441	-119.33378	917.05726	-258.52062	3.80461	968.24031	-258.53109	-83.85419	962.85880	-113.41417	-0.90619	514.09464	-172.00595	67.59387	457.27388	-261.67051	48.60903	76.19499	-257.09795	-35.47713	80.91870	-319.78923	18.21142	59.80903	-204.63008	16.28797	70.04642	-35.86452	-100.40009	520.30688	-111.01328	-158.78582	458.27624	-382.04376	-139.81695	195.12245	-357.68926	-62.98391	182.41813	-431.30897	-97.45130	213.94778	-337.81161	-133.74470	154.22188	-169.87544	149.56814	611.35589	-225.39536	129.85357	282.28557	-121.55492	-230.11542	631.66474	-240.85454	-216.69666	379.70336	
151	1.500	-184.21850	-12.92682	1330.86632	-217.86112	-22.32940	1117.68485	-52.34454	-11.72039	1279.37609	-115.47953	70.04767	914.15304	-101.24593	-118.84060	917.95320	-247.82252	3.85935	968.98384	-247.87523	-83.79105	963.48644	-109.38478	-0.14149	513.14599	-168.96501	68.13668	457.49639	-261.14431	49.05678	76.99095	-256.72442	-34.95360	81.76706	-319.40760	18.81125	61.06862	-204.25672	16.68920	70.42300	-17.65016	-100.15140	524.88685	-91.13032	-158.59709	460.96066	-351.68568	-139.15798	186.92620	-326.44432	-62.41433	175.24188	-401.68596	-96.55521	203.46288	-305.51766	-133.35633	148.13274	-164.27140	149.92182	611.67882	-223.58421	130.37466	282.92757	-105.62916	-230.25940	634.08688	-218.25377	-216.18614	377.20791	
152	1.510	-172.92993	-11.72658	1331.30849	-206.98479	-21.64228	1118.17103	-41.30913	-10.76962	1279.44304	-105.20223	70.38161	914.31933	-90.53596	-118.38953	918.60655	-237.21016	3.83533	969.53049	-237.29576	-83.78283	963.87844	-105.22022	0.72951	512.16851	-165.78040	68.73909	457.72074	-260.57029	49.53858	77.81481	-256.30978	-34.41018	82.65869	-318.99753	19.46957	62.38516	-203.85423	17.11371	70.82176	0.03798	-99.79771	529.24587	-71.75284	-158.28303	463.46190	-320.43125	-138.68498	178.14578	-294.42228	-61.98379	167.60398	-371.15201	-95.90481	192.27028	-272.37609	-133.05238	141.63440	-158.58521	150.28559	611.97673	-221.63646	130.94327	283.56531	-90.14277	-230.30880	636.19659	-195.57046	-215.69930	374.22858	
153	1.520	-161.55316	-10.56039	1331.56772	-196.11649	-21.04739	1118.48379	-30.21877	-9.83635	1279.24616	-94.99863	70.68479	914.34906	-79.88117	-117.97283	919.01769	-226.66818	3.73448	969.88311	-226.77088	-83.82871	964.04070	-100.92209	1.67485	511.16067	-162.44666	69.38363	457.94089	-259.95560	50.03728	78.66514	-255.84853	-33.86742	83.58924	-318.56163	20.15848	63.75731	-203.42316	17.54742	71.24009	17.16308	-99.32263	533.32734	-52.91846	-157.83950	465.73455	-288.25325	-138.39733	168.95389	-261.63692	-61.68413	159.67194	-339.66793	-95.51535	180.54643	-238.39230	-132.81185	134.89713	-152.79755	150.64565	612.24134	-219.56003	131.53993	284.19228	-75.13752	-230.25178	637.95149	-172.77940	-215.24403	370.80543	
154	1.530	-150.08471	-9.43603	1331.64729	-185.24144	-20.54025	1118.62591	-19.06756	-8.92751	1278.79942	-84.85073	70.96607	914.24613	-69.25668	-117.58291	919.19088	-216.17807	3.56241	970.04584	-216.27705	-83.92474	963.98199	-96.49722	2.65705	510.12302	-158.96351	70.04800	458.15156	-259.30940	50.53213	79.54159	-255.33769	-33.34812	84.55421	-318.10334	20.84462	65.18357	-202.96524	17.97349	71.67600	33.68686	-98.70997	537.07497	-34.66184	-157.26947	467.73626	-255.13477	-138.28852	159.53286	-228.11232	-61.50265	151.61751	-307.20466	-95.39834	168.47827	-203.57976	-132.60843	128.09627	-146.89558	150.98633	612.46343	-217.36715	132.14125	284.80443	-60.64962	-230.08225	639.31543	-149.86168	-214.82827	366.99010	
155	1.540	-138.52215	-8.36214	1331.55192	-174.34434	-20.11348	1118.60126	-7.84964	-8.05042	1278.11976	-74.73626	71.23412	914.01446	-58.63624	-117.21266	919.13378	-205.71830	3.32802	970.02367	-205.78912	-84.06427	963.71322	-91.95573	3.63762	509.05815	-155.33491	70.70774	458.34848	-258.64199	51.00070	80.44487	-254.77678	-32.87528	85.54946	-317.62654	21.49213	66.66238	-202.48313	18.37400	72.12838	49.57124	-97.94361	540.43421	-17.01214	-156.58271	469.42871	-221.07707	-138.34488	150.07187	-193.88865	-61.42123	143.61295	-273.75103	-95.55904	156.26108	-167.96739	-132.41025	121.40869	-140.87376	151.29239	612.63366	-215.07316	132.72235	285.40013	-46.70477	-229.80071	640.26006	-126.80635	-214.45871	362.84488	
156	1.550	-126.86404	-7.34784	1331.28755	-163.40966	-19.75711	1118.41454	3.44084	-7.21261	1277.22649	-64.62901	71.49709	913.65781	-47.99246	-116.85577	918.85703	-195.26456	3.04291	969.82204	-195.28066	-84.23846	963.24665	-87.30879	4.58093	507.97037	-151.56733	71.33887	458.52847	-257.96384	51.42120	81.37680	-254.16764	-32.46989	86.57177	-317.13517	22.06622	68.19228	-201.97998	18.73189	72.59720	64.78085	-97.00773	543.35434	0.00982	-155.79497	470.77890	-186.10811	-138.54432	140.76298	-159.02827	-61.41564	135.82654	-239.32242	-95.99343	144.09532	-131.60746	-132.18004	115.00845	-134.73336	151.55108	612.74357	-212.69455	133.25944	285.97987	-33.31337	-229.41480	640.76672	-103.61170	-214.13954	358.44110	
